<?xml version="1.0" encoding="UTF-8"?>
<svg width="763px" height="262px" viewBox="0 0 763 262" version="1.1" xmlns="http://www.w3.org/2000/svg" xmlns:xlink="http://www.w3.org/1999/xlink">
    <!-- Generator: Sketch 52.1 (67048) - http://www.bohemiancoding.com/sketch -->
    <title>Untitled</title>
    <desc>Created with Sketch.</desc>
    <g id="Page-1" stroke="none" stroke-width="1" fill="none" fill-rule="evenodd">
        <g id="bg-concept">
            <g id="Group">
                <g id="greenhouse" transform="translate(8.806918, 0.447213)">
                    <path d="M586.101553,0.895252537 L584.570663,253.326837 L6.53638461,253.326837 C3.01591153,253.326837 0.166276084,251.154774 0.166276084,248.471383 L0.166276084,117.400359 C0.103206073,92.170357 10.7850342,67.604646 30.6063335,47.40054 C36.9592421,41.107243 44.0804604,35.285943 51.8782526,30.019678 C79.7668269,11.183489 115.757078,0.81703 153.020204,0.895697 L586.101553,0.895252537 Z" id="Path" fill="#84B5CB"></path>
                    <path d="M586.101553,0.895697 C670.518387,0.895697 738.949748,53.055766 738.949748,117.400359 L738.949748,248.471383 C738.949748,251.154774 736.100114,253.326837 732.585373,253.326837 L433.247625,253.326837 L433.247625,117.400359 C433.247625,53.055766 501.678986,0.895697 586.101553,0.895697 Z" id="Path" fill="#9FC9D3"></path>
                    <path d="M480.63068,33.030845 C473.75601,38.061113 467.489108,43.550266 461.904512,49.437122 L38.3811925,49.437122 C35.5659598,49.43275 32.8309992,48.716014 30.6063335,47.40054 C36.9592421,41.107243 44.0804604,35.285943 51.8782526,30.019678 L471.462542,30.019678 C474.925679,30.032789 478.23974,31.116634 480.63068,33.030845 Z" id="Path" fill="#285680"></path>
                    <polygon id="Path" fill="#285680" points="0.166276084 146.528711 433.247625 146.528711 433.247625 165.946154 0.166276084 165.946154"></polygon>
                    <path d="M586.101553,97.982915 C621.27189,97.982915 649.785434,119.716643 649.785434,146.528711 L649.785434,253.326837 L522.411939,253.326837 L522.411939,146.528711 C522.411939,119.716643 550.925485,97.982915 586.101553,97.982915 Z" id="Path" fill="#5E5F62"></path>
                    <path d="M458.722325,0.895697 C458.722325,6.258111 453.017322,10.602233 445.982109,10.602233 C417.158946,10.562901 389.029557,17.345676 365.481372,30.019678 C355.177965,35.530683 345.883685,42.059979 337.839345,49.437122 C317.129328,68.566122 305.822528,92.603021 305.868397,117.400359 L305.868397,253.326837 L280.393526,253.326837 L280.393699,117.400359 C280.34783,93.306646 289.412763,69.706782 306.504835,49.437122 C312.347446,42.470791 319.090242,35.963347 326.63002,30.019678 C342.346011,17.52923 361.244189,7.617287 382.166353,0.895697 L458.722325,0.895697 Z" id="Path" fill="#285680"></path>
                    <path d="M305.868397,0.895697 C305.868397,6.258111 300.169129,10.602233 293.133915,10.602233 C264.305018,10.562901 236.175631,17.345676 212.627445,30.019678 C202.329772,35.530683 193.035492,42.059979 184.991152,49.437122 C164.2754,68.566122 152.968601,92.603021 153.020204,117.400359 L153.020204,253.326837 L127.539598,253.326837 L127.539771,117.400359 C127.493902,93.306646 136.558835,69.706782 153.656642,49.437122 C159.493518,42.470791 166.236315,35.963347 173.781825,30.019678 C189.492083,17.52923 208.390262,7.617287 229.31816,0.895697 L305.868397,0.895697 Z" id="Path" fill="#285680"></path>
                </g>
                <g id="grass" transform="translate(8.806918, 235.265637)">
                    <path d="M2.85307102,19.0197424 L132.985035,19.0197424 C133.790595,19.0197424 134.434603,18.764687 134.417815,18.4524308 C134.298921,16.2284325 134.330571,8.07572901 140.844682,4.99628123 C141.026876,4.91015999 140.802299,4.78626067 140.53121,4.82318501 C137.428414,5.24568064 128.179195,6.69960346 125.87728,9.28249349 C125.785633,9.38536941 125.406934,9.38014024 125.334277,9.27502324 L121.744621,4.08672573 C121.676367,3.98790508 121.328218,3.97488551 121.212627,4.06687622 L117.201614,7.25400223 C117.106389,7.32977185 116.836126,7.33798912 116.711452,7.26894272 L109.06152,3.0316072 C108.917582,2.95178231 108.596954,2.97792816 108.547965,3.07344056 L104.998491,9.9897121 C104.939045,10.1055009 104.515761,10.1095562 104.442003,9.99504799 L98.0366017,0.0837424092 C97.9653204,-0.0264970406 97.5632284,-0.0284179603 97.4847916,0.0810744652 L92.0965928,7.60243573 C92.0250363,7.70232356 91.6700064,7.71256846 91.5610205,7.61790981 L85.3345107,2.20561171 C85.2266255,2.11191351 84.8762743,2.12066437 84.8005897,2.21895143 L79.8070521,8.69458532 C79.7236613,8.80290386 79.3243214,8.79863515 79.2563427,8.68871585 L76.3137224,3.93358573 C76.2493216,3.82964263 75.8797052,3.8180104 75.7731961,3.91661761 L67.6215433,11.4540932 C67.5238413,11.5443765 67.1941312,11.5445899 67.0956036,11.4544134 L56.1871019,1.46424341 C56.0607772,1.34845463 55.6132744,1.39039471 55.6399703,1.51568136 C56.0483925,3.44236387 56.6398339,8.73972695 51.5678594,11.166809 C51.4263978,11.2344681 51.1503552,11.2180336 51.07412,11.136181 L45.7123421,5.38142563 C45.6182179,5.28047063 45.2458492,5.28537965 45.1696142,5.38857572 L40.7031172,11.4467298 C40.6334872,11.5410683 40.3062542,11.5568625 40.1813057,11.471595 C38.5743135,10.3721886 31.9192908,5.42550007 35.2392337,0.981238802 C35.2392337,0.981238802 26.5379724,5.41290738 26.2418389,8.67772392 C26.2308302,8.79799484 25.8003908,8.82424741 25.6908544,8.71166017 L22.0885389,5.00802018 C21.9913873,4.90802563 21.6212204,4.91432198 21.5469119,5.01719791 L17.161879,11.0815415 C17.0773874,11.1983975 16.6378658,11.1851645 16.603739,11.0644667 C16.1226596,9.36573334 13.6057999,4.594809 0.442995585,1.1578567 C0.219519366,1.09948208 -0.0680824188,1.18442942 0.0144826868,1.28389038 C1.28928792,2.82254709 6.57400511,10.0285574 1.4621242,18.3346144 C1.24662928,18.6840084 1.92669054,19.0197424 2.85307102,19.0197424 Z" id="Path" fill="#43A838"></path>
                    <g id="Group" transform="translate(1.467820, 9.952237)" fill="#338727">
                        <path d="M133.40656,8.37384428 C133.423947,8.70008881 132.777063,8.96815529 131.972321,8.96815529 L1.48060247,8.96815529 C0.552224705,8.96815529 -0.128880029,8.61629006 0.0866559508,8.25032784 C0.667306016,7.26454578 1.11272864,6.29274882 1.44610568,5.34310427 C1.4576966,5.34422308 1.46901154,5.34422308 1.48060247,5.34422308 L131.972321,5.34422308 C132.777063,5.34422308 133.330391,5.32676967 133.330391,5.32676967 C133.330667,6.13734634 133.352469,7.2971031 133.40656,8.37384428 Z" id="Path"></path>
                        <ellipse id="Oval" cx="25.2731805" cy="2.63637117" rx="2.45617186" ry="1.11880838"></ellipse>
                        <ellipse id="Oval" cx="32.1394226" cy="5.41996641" rx="2.45617186" ry="1.11880838"></ellipse>
                        <ellipse id="Oval" cx="114.109329" cy="1.18863313" rx="2.45617186" ry="1.11880838"></ellipse>
                    </g>
                </g>
                <g id="grass" transform="translate(140.910691, 235.265637)">
                    <path d="M2.85307102,19.0197424 L132.985035,19.0197424 C133.790595,19.0197424 134.434603,18.764687 134.417815,18.4524308 C134.298921,16.2284325 134.330571,8.07572901 140.844682,4.99628123 C141.026876,4.91015999 140.802299,4.78626067 140.53121,4.82318501 C137.428414,5.24568064 128.179195,6.69960346 125.87728,9.28249349 C125.785633,9.38536941 125.406934,9.38014024 125.334277,9.27502324 L121.744621,4.08672573 C121.676367,3.98790508 121.328218,3.97488551 121.212627,4.06687622 L117.201614,7.25400223 C117.106389,7.32977185 116.836126,7.33798912 116.711452,7.26894272 L109.06152,3.0316072 C108.917582,2.95178231 108.596954,2.97792816 108.547965,3.07344056 L104.998491,9.9897121 C104.939045,10.1055009 104.515761,10.1095562 104.442003,9.99504799 L98.0366017,0.0837424092 C97.9653204,-0.0264970406 97.5632284,-0.0284179603 97.4847916,0.0810744652 L92.0965928,7.60243573 C92.0250363,7.70232356 91.6700064,7.71256846 91.5610205,7.61790981 L85.3345107,2.20561171 C85.2266255,2.11191351 84.8762743,2.12066437 84.8005897,2.21895143 L79.8070521,8.69458532 C79.7236613,8.80290386 79.3243214,8.79863515 79.2563427,8.68871585 L76.3137224,3.93358573 C76.2493216,3.82964263 75.8797052,3.8180104 75.7731961,3.91661761 L67.6215433,11.4540932 C67.5238413,11.5443765 67.1941312,11.5445899 67.0956036,11.4544134 L56.1871019,1.46424341 C56.0607772,1.34845463 55.6132744,1.39039471 55.6399703,1.51568136 C56.0483925,3.44236387 56.6398339,8.73972695 51.5678594,11.166809 C51.4263978,11.2344681 51.1503552,11.2180336 51.07412,11.136181 L45.7123421,5.38142563 C45.6182179,5.28047063 45.2458492,5.28537965 45.1696142,5.38857572 L40.7031172,11.4467298 C40.6334872,11.5410683 40.3062542,11.5568625 40.1813057,11.471595 C38.5743135,10.3721886 31.9192908,5.42550007 35.2392337,0.981238802 C35.2392337,0.981238802 26.5379724,5.41290738 26.2418389,8.67772392 C26.2308302,8.79799484 25.8003908,8.82424741 25.6908544,8.71166017 L22.0885389,5.00802018 C21.9913873,4.90802563 21.6212204,4.91432198 21.5469119,5.01719791 L17.161879,11.0815415 C17.0773874,11.1983975 16.6378658,11.1851645 16.603739,11.0644667 C16.1226596,9.36573334 13.6057999,4.594809 0.442995585,1.1578567 C0.219519366,1.09948208 -0.0680824188,1.18442942 0.0144826868,1.28389038 C1.28928792,2.82254709 6.57400511,10.0285574 1.4621242,18.3346144 C1.24662928,18.6840084 1.92669054,19.0197424 2.85307102,19.0197424 Z" id="Path" fill="#43A838"></path>
                    <g id="Group" transform="translate(1.467820, 9.952237)" fill="#338727">
                        <path d="M133.40656,8.37384428 C133.423947,8.70008881 132.777063,8.96815529 131.972321,8.96815529 L1.48060247,8.96815529 C0.552224705,8.96815529 -0.128880029,8.61629006 0.0866559508,8.25032784 C0.667306016,7.26454578 1.11272864,6.29274882 1.44610568,5.34310427 C1.4576966,5.34422308 1.46901154,5.34422308 1.48060247,5.34422308 L131.972321,5.34422308 C132.777063,5.34422308 133.330391,5.32676967 133.330391,5.32676967 C133.330667,6.13734634 133.352469,7.2971031 133.40656,8.37384428 Z" id="Path"></path>
                        <ellipse id="Oval" cx="25.2731805" cy="2.63637117" rx="2.45617186" ry="1.11880838"></ellipse>
                        <ellipse id="Oval" cx="32.1394226" cy="5.41996641" rx="2.45617186" ry="1.11880838"></ellipse>
                        <ellipse id="Oval" cx="114.109329" cy="1.18863313" rx="2.45617186" ry="1.11880838"></ellipse>
                    </g>
                </g>
                <g id="grass" transform="translate(264.207546, 235.265637)">
                    <path d="M2.85307102,19.0197424 L132.985035,19.0197424 C133.790595,19.0197424 134.434603,18.764687 134.417815,18.4524308 C134.298921,16.2284325 134.330571,8.07572901 140.844682,4.99628123 C141.026876,4.91015999 140.802299,4.78626067 140.53121,4.82318501 C137.428414,5.24568064 128.179195,6.69960346 125.87728,9.28249349 C125.785633,9.38536941 125.406934,9.38014024 125.334277,9.27502324 L121.744621,4.08672573 C121.676367,3.98790508 121.328218,3.97488551 121.212627,4.06687622 L117.201614,7.25400223 C117.106389,7.32977185 116.836126,7.33798912 116.711452,7.26894272 L109.06152,3.0316072 C108.917582,2.95178231 108.596954,2.97792816 108.547965,3.07344056 L104.998491,9.9897121 C104.939045,10.1055009 104.515761,10.1095562 104.442003,9.99504799 L98.0366017,0.0837424092 C97.9653204,-0.0264970406 97.5632284,-0.0284179603 97.4847916,0.0810744652 L92.0965928,7.60243573 C92.0250363,7.70232356 91.6700064,7.71256846 91.5610205,7.61790981 L85.3345107,2.20561171 C85.2266255,2.11191351 84.8762743,2.12066437 84.8005897,2.21895143 L79.8070521,8.69458532 C79.7236613,8.80290386 79.3243214,8.79863515 79.2563427,8.68871585 L76.3137224,3.93358573 C76.2493216,3.82964263 75.8797052,3.8180104 75.7731961,3.91661761 L67.6215433,11.4540932 C67.5238413,11.5443765 67.1941312,11.5445899 67.0956036,11.4544134 L56.1871019,1.46424341 C56.0607772,1.34845463 55.6132744,1.39039471 55.6399703,1.51568136 C56.0483925,3.44236387 56.6398339,8.73972695 51.5678594,11.166809 C51.4263978,11.2344681 51.1503552,11.2180336 51.07412,11.136181 L45.7123421,5.38142563 C45.6182179,5.28047063 45.2458492,5.28537965 45.1696142,5.38857572 L40.7031172,11.4467298 C40.6334872,11.5410683 40.3062542,11.5568625 40.1813057,11.471595 C38.5743135,10.3721886 31.9192908,5.42550007 35.2392337,0.981238802 C35.2392337,0.981238802 26.5379724,5.41290738 26.2418389,8.67772392 C26.2308302,8.79799484 25.8003908,8.82424741 25.6908544,8.71166017 L22.0885389,5.00802018 C21.9913873,4.90802563 21.6212204,4.91432198 21.5469119,5.01719791 L17.161879,11.0815415 C17.0773874,11.1983975 16.6378658,11.1851645 16.603739,11.0644667 C16.1226596,9.36573334 13.6057999,4.594809 0.442995585,1.1578567 C0.219519366,1.09948208 -0.0680824188,1.18442942 0.0144826868,1.28389038 C1.28928792,2.82254709 6.57400511,10.0285574 1.4621242,18.3346144 C1.24662928,18.6840084 1.92669054,19.0197424 2.85307102,19.0197424 Z" id="Path" fill="#43A838"></path>
                    <g id="Group" transform="translate(1.467820, 9.952237)" fill="#338727">
                        <path d="M133.40656,8.37384428 C133.423947,8.70008881 132.777063,8.96815529 131.972321,8.96815529 L1.48060247,8.96815529 C0.552224705,8.96815529 -0.128880029,8.61629006 0.0866559508,8.25032784 C0.667306016,7.26454578 1.11272864,6.29274882 1.44610568,5.34310427 C1.4576966,5.34422308 1.46901154,5.34422308 1.48060247,5.34422308 L131.972321,5.34422308 C132.777063,5.34422308 133.330391,5.32676967 133.330391,5.32676967 C133.330667,6.13734634 133.352469,7.2971031 133.40656,8.37384428 Z" id="Path"></path>
                        <ellipse id="Oval" cx="25.2731805" cy="2.63637117" rx="2.45617186" ry="1.11880838"></ellipse>
                        <ellipse id="Oval" cx="32.1394226" cy="5.41996641" rx="2.45617186" ry="1.11880838"></ellipse>
                        <ellipse id="Oval" cx="114.109329" cy="1.18863313" rx="2.45617186" ry="1.11880838"></ellipse>
                    </g>
                </g>
                <g id="grass" transform="translate(391.907860, 235.265637)">
                    <path d="M2.85307102,19.0197424 L132.985035,19.0197424 C133.790595,19.0197424 134.434603,18.764687 134.417815,18.4524308 C134.298921,16.2284325 134.330571,8.07572901 140.844682,4.99628123 C141.026876,4.91015999 140.802299,4.78626067 140.53121,4.82318501 C137.428414,5.24568064 128.179195,6.69960346 125.87728,9.28249349 C125.785633,9.38536941 125.406934,9.38014024 125.334277,9.27502324 L121.744621,4.08672573 C121.676367,3.98790508 121.328218,3.97488551 121.212627,4.06687622 L117.201614,7.25400223 C117.106389,7.32977185 116.836126,7.33798912 116.711452,7.26894272 L109.06152,3.0316072 C108.917582,2.95178231 108.596954,2.97792816 108.547965,3.07344056 L104.998491,9.9897121 C104.939045,10.1055009 104.515761,10.1095562 104.442003,9.99504799 L98.0366017,0.0837424092 C97.9653204,-0.0264970406 97.5632284,-0.0284179603 97.4847916,0.0810744652 L92.0965928,7.60243573 C92.0250363,7.70232356 91.6700064,7.71256846 91.5610205,7.61790981 L85.3345107,2.20561171 C85.2266255,2.11191351 84.8762743,2.12066437 84.8005897,2.21895143 L79.8070521,8.69458532 C79.7236613,8.80290386 79.3243214,8.79863515 79.2563427,8.68871585 L76.3137224,3.93358573 C76.2493216,3.82964263 75.8797052,3.8180104 75.7731961,3.91661761 L67.6215433,11.4540932 C67.5238413,11.5443765 67.1941312,11.5445899 67.0956036,11.4544134 L56.1871019,1.46424341 C56.0607772,1.34845463 55.6132744,1.39039471 55.6399703,1.51568136 C56.0483925,3.44236387 56.6398339,8.73972695 51.5678594,11.166809 C51.4263978,11.2344681 51.1503552,11.2180336 51.07412,11.136181 L45.7123421,5.38142563 C45.6182179,5.28047063 45.2458492,5.28537965 45.1696142,5.38857572 L40.7031172,11.4467298 C40.6334872,11.5410683 40.3062542,11.5568625 40.1813057,11.471595 C38.5743135,10.3721886 31.9192908,5.42550007 35.2392337,0.981238802 C35.2392337,0.981238802 26.5379724,5.41290738 26.2418389,8.67772392 C26.2308302,8.79799484 25.8003908,8.82424741 25.6908544,8.71166017 L22.0885389,5.00802018 C21.9913873,4.90802563 21.6212204,4.91432198 21.5469119,5.01719791 L17.161879,11.0815415 C17.0773874,11.1983975 16.6378658,11.1851645 16.603739,11.0644667 C16.1226596,9.36573334 13.6057999,4.594809 0.442995585,1.1578567 C0.219519366,1.09948208 -0.0680824188,1.18442942 0.0144826868,1.28389038 C1.28928792,2.82254709 6.57400511,10.0285574 1.4621242,18.3346144 C1.24662928,18.6840084 1.92669054,19.0197424 2.85307102,19.0197424 Z" id="Path" fill="#43A838"></path>
                    <g id="Group" transform="translate(1.467820, 9.952237)" fill="#338727">
                        <path d="M133.40656,8.37384428 C133.423947,8.70008881 132.777063,8.96815529 131.972321,8.96815529 L1.48060247,8.96815529 C0.552224705,8.96815529 -0.128880029,8.61629006 0.0866559508,8.25032784 C0.667306016,7.26454578 1.11272864,6.29274882 1.44610568,5.34310427 C1.4576966,5.34422308 1.46901154,5.34422308 1.48060247,5.34422308 L131.972321,5.34422308 C132.777063,5.34422308 133.330391,5.32676967 133.330391,5.32676967 C133.330667,6.13734634 133.352469,7.2971031 133.40656,8.37384428 Z" id="Path"></path>
                        <ellipse id="Oval" cx="25.2731805" cy="2.63637117" rx="2.45617186" ry="1.11880838"></ellipse>
                        <ellipse id="Oval" cx="32.1394226" cy="5.41996641" rx="2.45617186" ry="1.11880838"></ellipse>
                        <ellipse id="Oval" cx="114.109329" cy="1.18863313" rx="2.45617186" ry="1.11880838"></ellipse>
                    </g>
                </g>
                <g id="grass" transform="translate(500.526518, 235.265637)">
                    <path d="M2.85307102,19.0197424 L132.985035,19.0197424 C133.790595,19.0197424 134.434603,18.764687 134.417815,18.4524308 C134.298921,16.2284325 134.330571,8.07572901 140.844682,4.99628123 C141.026876,4.91015999 140.802299,4.78626067 140.53121,4.82318501 C137.428414,5.24568064 128.179195,6.69960346 125.87728,9.28249349 C125.785633,9.38536941 125.406934,9.38014024 125.334277,9.27502324 L121.744621,4.08672573 C121.676367,3.98790508 121.328218,3.97488551 121.212627,4.06687622 L117.201614,7.25400223 C117.106389,7.32977185 116.836126,7.33798912 116.711452,7.26894272 L109.06152,3.0316072 C108.917582,2.95178231 108.596954,2.97792816 108.547965,3.07344056 L104.998491,9.9897121 C104.939045,10.1055009 104.515761,10.1095562 104.442003,9.99504799 L98.0366017,0.0837424092 C97.9653204,-0.0264970406 97.5632284,-0.0284179603 97.4847916,0.0810744652 L92.0965928,7.60243573 C92.0250363,7.70232356 91.6700064,7.71256846 91.5610205,7.61790981 L85.3345107,2.20561171 C85.2266255,2.11191351 84.8762743,2.12066437 84.8005897,2.21895143 L79.8070521,8.69458532 C79.7236613,8.80290386 79.3243214,8.79863515 79.2563427,8.68871585 L76.3137224,3.93358573 C76.2493216,3.82964263 75.8797052,3.8180104 75.7731961,3.91661761 L67.6215433,11.4540932 C67.5238413,11.5443765 67.1941312,11.5445899 67.0956036,11.4544134 L56.1871019,1.46424341 C56.0607772,1.34845463 55.6132744,1.39039471 55.6399703,1.51568136 C56.0483925,3.44236387 56.6398339,8.73972695 51.5678594,11.166809 C51.4263978,11.2344681 51.1503552,11.2180336 51.07412,11.136181 L45.7123421,5.38142563 C45.6182179,5.28047063 45.2458492,5.28537965 45.1696142,5.38857572 L40.7031172,11.4467298 C40.6334872,11.5410683 40.3062542,11.5568625 40.1813057,11.471595 C38.5743135,10.3721886 31.9192908,5.42550007 35.2392337,0.981238802 C35.2392337,0.981238802 26.5379724,5.41290738 26.2418389,8.67772392 C26.2308302,8.79799484 25.8003908,8.82424741 25.6908544,8.71166017 L22.0885389,5.00802018 C21.9913873,4.90802563 21.6212204,4.91432198 21.5469119,5.01719791 L17.161879,11.0815415 C17.0773874,11.1983975 16.6378658,11.1851645 16.603739,11.0644667 C16.1226596,9.36573334 13.6057999,4.594809 0.442995585,1.1578567 C0.219519366,1.09948208 -0.0680824188,1.18442942 0.0144826868,1.28389038 C1.28928792,2.82254709 6.57400511,10.0285574 1.4621242,18.3346144 C1.24662928,18.6840084 1.92669054,19.0197424 2.85307102,19.0197424 Z" id="Path" fill="#43A838"></path>
                    <g id="Group" transform="translate(1.467820, 9.952237)" fill="#338727">
                        <path d="M133.40656,8.37384428 C133.423947,8.70008881 132.777063,8.96815529 131.972321,8.96815529 L1.48060247,8.96815529 C0.552224705,8.96815529 -0.128880029,8.61629006 0.0866559508,8.25032784 C0.667306016,7.26454578 1.11272864,6.29274882 1.44610568,5.34310427 C1.4576966,5.34422308 1.46901154,5.34422308 1.48060247,5.34422308 L131.972321,5.34422308 C132.777063,5.34422308 133.330391,5.32676967 133.330391,5.32676967 C133.330667,6.13734634 133.352469,7.2971031 133.40656,8.37384428 Z" id="Path"></path>
                        <ellipse id="Oval" cx="25.2731805" cy="2.63637117" rx="2.45617186" ry="1.11880838"></ellipse>
                        <ellipse id="Oval" cx="32.1394226" cy="5.41996641" rx="2.45617186" ry="1.11880838"></ellipse>
                        <ellipse id="Oval" cx="114.109329" cy="1.18863313" rx="2.45617186" ry="1.11880838"></ellipse>
                    </g>
                </g>
                <g id="grass" transform="translate(620.887734, 235.265637)">
                    <path d="M2.85307102,19.0197424 L132.985035,19.0197424 C133.790595,19.0197424 134.434603,18.764687 134.417815,18.4524308 C134.298921,16.2284325 134.330571,8.07572901 140.844682,4.99628123 C141.026876,4.91015999 140.802299,4.78626067 140.53121,4.82318501 C137.428414,5.24568064 128.179195,6.69960346 125.87728,9.28249349 C125.785633,9.38536941 125.406934,9.38014024 125.334277,9.27502324 L121.744621,4.08672573 C121.676367,3.98790508 121.328218,3.97488551 121.212627,4.06687622 L117.201614,7.25400223 C117.106389,7.32977185 116.836126,7.33798912 116.711452,7.26894272 L109.06152,3.0316072 C108.917582,2.95178231 108.596954,2.97792816 108.547965,3.07344056 L104.998491,9.9897121 C104.939045,10.1055009 104.515761,10.1095562 104.442003,9.99504799 L98.0366017,0.0837424092 C97.9653204,-0.0264970406 97.5632284,-0.0284179603 97.4847916,0.0810744652 L92.0965928,7.60243573 C92.0250363,7.70232356 91.6700064,7.71256846 91.5610205,7.61790981 L85.3345107,2.20561171 C85.2266255,2.11191351 84.8762743,2.12066437 84.8005897,2.21895143 L79.8070521,8.69458532 C79.7236613,8.80290386 79.3243214,8.79863515 79.2563427,8.68871585 L76.3137224,3.93358573 C76.2493216,3.82964263 75.8797052,3.8180104 75.7731961,3.91661761 L67.6215433,11.4540932 C67.5238413,11.5443765 67.1941312,11.5445899 67.0956036,11.4544134 L56.1871019,1.46424341 C56.0607772,1.34845463 55.6132744,1.39039471 55.6399703,1.51568136 C56.0483925,3.44236387 56.6398339,8.73972695 51.5678594,11.166809 C51.4263978,11.2344681 51.1503552,11.2180336 51.07412,11.136181 L45.7123421,5.38142563 C45.6182179,5.28047063 45.2458492,5.28537965 45.1696142,5.38857572 L40.7031172,11.4467298 C40.6334872,11.5410683 40.3062542,11.5568625 40.1813057,11.471595 C38.5743135,10.3721886 31.9192908,5.42550007 35.2392337,0.981238802 C35.2392337,0.981238802 26.5379724,5.41290738 26.2418389,8.67772392 C26.2308302,8.79799484 25.8003908,8.82424741 25.6908544,8.71166017 L22.0885389,5.00802018 C21.9913873,4.90802563 21.6212204,4.91432198 21.5469119,5.01719791 L17.161879,11.0815415 C17.0773874,11.1983975 16.6378658,11.1851645 16.603739,11.0644667 C16.1226596,9.36573334 13.6057999,4.594809 0.442995585,1.1578567 C0.219519366,1.09948208 -0.0680824188,1.18442942 0.0144826868,1.28389038 C1.28928792,2.82254709 6.57400511,10.0285574 1.4621242,18.3346144 C1.24662928,18.6840084 1.92669054,19.0197424 2.85307102,19.0197424 Z" id="Path" fill="#43A838"></path>
                    <g id="Group" transform="translate(1.467820, 9.952237)" fill="#338727">
                        <path d="M133.40656,8.37384428 C133.423947,8.70008881 132.777063,8.96815529 131.972321,8.96815529 L1.48060247,8.96815529 C0.552224705,8.96815529 -0.128880029,8.61629006 0.0866559508,8.25032784 C0.667306016,7.26454578 1.11272864,6.29274882 1.44610568,5.34310427 C1.4576966,5.34422308 1.46901154,5.34422308 1.48060247,5.34422308 L131.972321,5.34422308 C132.777063,5.34422308 133.330391,5.32676967 133.330391,5.32676967 C133.330667,6.13734634 133.352469,7.2971031 133.40656,8.37384428 Z" id="Path"></path>
                        <ellipse id="Oval" cx="25.2731805" cy="2.63637117" rx="2.45617186" ry="1.11880838"></ellipse>
                        <ellipse id="Oval" cx="32.1394226" cy="5.41996641" rx="2.45617186" ry="1.11880838"></ellipse>
                        <ellipse id="Oval" cx="114.109329" cy="1.18863313" rx="2.45617186" ry="1.11880838"></ellipse>
                    </g>
                </g>
                <g id="farmer" transform="translate(562.174946, 140.166925)">
                    <path d="M41.0174994,58.2257263 C43.4240526,60.4866179 48.1228049,59.0516609 51.5190743,55.0198465 C54.9104368,50.9880322 69.6569751,29.3110266 67.2570357,27.0463019 C64.847069,24.7887925 46.196709,42.8055754 42.8055599,46.8373896 C39.4144107,50.8637925 38.6143599,55.9630308 41.0174994,58.2257263 Z" id="Path" fill="#249311"></path>
                    <g id="Group" transform="translate(11.742558, 73.841353)" fill="#283526">
                        <path d="M16.0181,8.23560405 C16.0181,12.708051 12.4763207,36.8245909 8.10157677,36.8245909 C3.734002,36.8245909 0.192222578,12.7062164 0.192222578,8.23560405 C0.192222578,3.76499171 3.73579428,0.135987336 8.10157677,0.135987336 C12.4763207,0.135987336 16.0181,3.76499171 16.0181,8.23560405 Z" id="Path"></path>
                        <path d="M42.5345103,8.23560405 C42.5345103,12.708051 38.9909386,36.8245909 34.6179869,36.8245909 C30.250412,36.8245909 26.7086327,12.7062164 26.7086327,8.23560405 C26.7086327,3.76499171 30.2522044,0.135987336 34.6179869,0.135987336 C38.9911626,0.135987336 42.5345103,3.76499171 42.5345103,8.23560405 Z" id="Path"></path>
                    </g>
                    <g id="Group" transform="translate(0.000000, 41.395910)" fill="#32B220">
                        <path d="M55.7753638,29.6303104 C55.7753638,58.1516458 45.8231587,48.6533389 33.5441541,48.6533389 C21.2669344,48.6533389 11.3129444,58.1516458 11.3129444,29.6303104 C11.3129444,13.3228253 21.2705041,0.104079281 33.5441541,0.104079281 C45.8213738,0.106111198 55.7753638,13.3246315 55.7753638,29.6303104 Z" id="Path"></path>
                        <path d="M31.0926369,4.46299184 C33.3297467,7.00966059 31.9098836,11.9819862 27.9204789,15.5759951 C23.9310741,19.1648112 2.48029825,34.7717365 0.241180391,32.2302605 C-1.99258286,29.6799794 15.8364712,9.9437481 19.8223062,6.35515769 C23.8063564,2.76656728 28.8553039,1.91812923 31.0926369,4.46299184 Z" id="Path"></path>
                    </g>
                    <polygon id="Rectangle" fill="#DD9F76" transform="translate(33.759853, 46.989952) rotate(135.000000) translate(-33.759853, -46.989952) " points="28.2790442 41.5091434 39.3538949 41.3959103 39.2406619 52.470761 28.1658112 52.5839941"></polygon>
                    <path d="M33.7598531,82.5600284 C22.3544685,82.5600284 12.9730938,91.0127569 11.8539224,68.247311 C11.7790163,69.0371703 11.7425576,69.9366689 11.7425576,70.9604253 C11.7425576,99.8161026 21.6007678,90.2064516 33.7598531,90.2064516 C45.9207062,90.2064516 55.7771487,99.8161026 55.7771487,70.9604253 C55.7771487,69.9384962 55.7406899,69.0387692 55.6657839,68.247311 C54.5466124,91.0127569 45.1687731,82.5600284 33.7598531,82.5600284 Z" id="Path" fill="#249311"></path>
                    <path d="M29.356394,110.149292 C29.356394,113.656121 25.4115294,114.118454 20.5485894,114.118454 C15.6891951,114.118454 11.7425576,113.658 11.7425576,110.149292 C11.7425576,106.640585 15.6891951,101.811562 20.5485894,101.811562 C25.4115294,101.813441 29.356394,106.640819 29.356394,110.149292 Z" id="Path" fill="#B27029"></path>
                    <path d="M29.356394,109.643221 C29.356394,113.597174 25.4115294,114.118454 20.5485894,114.118454 C15.6891951,114.118454 11.7425576,113.599292 11.7425576,109.643221" id="Path" fill="#A05810"></path>
                    <path d="M55.7771487,110.149292 C55.7771487,113.656121 51.835036,114.118454 46.971117,114.118454 C42.1089712,114.118454 38.1633122,113.658 38.1633122,110.149292 C38.1633122,106.640585 42.1089712,101.811562 46.971117,101.811562 C51.8348144,101.813441 55.7771487,106.640819 55.7771487,110.149292 Z" id="Path" fill="#B27029"></path>
                    <path d="M55.7771487,109.643221 C55.7771487,113.597174 51.835036,114.118454 46.971117,114.118454 C42.1089712,114.118454 38.1633122,113.599292 38.1633122,109.643221" id="Path" fill="#A05810"></path>
                    <path d="M61.6484275,27.93892 C61.6484275,42.1060197 48.8310912,49.2275686 33.0294947,49.2275686 C17.2207954,49.2275686 4.40345911,42.1060197 4.40345911,27.93892 C4.40345911,13.7684477 17.2207954,0 33.0294947,0 C48.8310912,0 61.6484275,13.7684477 61.6484275,27.93892 Z" id="Path" fill="#E8B085"></path>
                    <path d="M61.6484275,27.9702094 C61.6484275,42.1164867 48.8310912,49.2275686 33.0294947,49.2275686 C17.2207954,49.2275686 4.40345911,42.1164867 4.40345911,27.9702094" id="Path" fill="#DD9F76"></path>
                    <path d="M42.9847304,37.2347533 C42.9847304,42.47837 38.8569561,46.7280457 33.7598531,46.7280457 C28.6627501,46.7280457 24.5349759,42.47837 24.5349759,37.2347533 L24.5349759,29.0890178 L23.2322836,29.0890178 C22.4743614,30.6824217 22.0172955,32.4545418 22.0172955,34.3503714 L22.0172955,48.7725061 C25.5952816,49.8088809 29.5666279,50.3463769 33.7633439,50.3463769 C37.956569,50.3463769 41.9261701,49.8086565 45.5024108,48.7725061 L45.5024108,34.3503714 C45.5024108,32.456338 45.0453449,30.6842178 44.2874227,29.0890178 L42.9847304,29.0890178 L42.9847304,37.2347533 Z" id="Path" fill="#543722"></path>
                    <ellipse id="Oval" fill="#113E49" cx="20.5494758" cy="22.9355717" rx="2.9356394" ry="2.79702094"></ellipse>
                    <path d="M23.4851152,23.4949759 C23.4851152,24.733615 22.1677432,25.7325927 20.5494758,25.7325927 C18.9253534,25.7325927 17.6138364,24.733615 17.6138364,23.4949759" id="Path" fill="#000000"></path>
                    <path d="M44.0345911,22.9346018 C44.0345911,24.4834376 45.3440716,25.7325927 46.9722669,25.7325927 C48.5943528,25.7325927 49.9058699,24.4834376 49.9058699,22.9346018 C49.9058699,21.3913426 48.5946074,20.1385508 46.9722669,20.1385508 C45.3440716,20.1385508 44.0345911,21.3913426 44.0345911,22.9346018 Z" id="Path" fill="#113E49"></path>
                    <path d="M44.0345911,23.4949759 C44.0345911,24.733615 45.3440716,25.7325927 46.9722669,25.7325927 C48.5943528,25.7325927 49.9058699,24.733615 49.9058699,23.4949759" id="Path" fill="#000000"></path>
                    <path d="M33.7598531,30.331836 C33.7598531,30.331836 30.8727115,23.4046755 23.1086848,29.0958241 C15.3446582,34.7869726 14.678197,33.0522566 14.678197,33.0522566 C14.678197,33.0522566 22.8858884,39.7367527 31.7636829,35.5319235 L33.0951058,34.2901794 L33.7598531,30.331836 Z" id="Path" fill="#663F24"></path>
                    <path d="M14.678197,32.9794484 C14.678197,32.9794484 22.8851514,39.7897547 31.7621486,35.5057856 L33.0934518,34.2406702 L33.7598531,30.2078262" id="Path" fill="#543722"></path>
                    <path d="M33.7598531,30.331836 C33.7598531,30.331836 36.6440405,23.4046755 44.4102641,29.0958241 C52.1764879,34.7869726 52.8415093,33.0522566 52.8415093,33.0522566 C52.8415093,33.0522566 44.6347946,39.7367527 35.7562026,35.5319235 L34.4229463,34.2901794 L33.7598531,30.331836 Z" id="Path" fill="#663F24"></path>
                    <path d="M52.8415093,32.9794484 C52.8415093,32.9794484 44.6348867,39.7897547 35.7563944,35.5057856 L34.4231531,34.2406702 L33.7598531,30.2078262" id="Path" fill="#543722"></path>
                    <g id="Group" transform="translate(32.292033, 58.178036)" fill="#FFFFFF">
                        <ellipse id="Oval" cx="1.5393235" cy="1.72890615" rx="1.4678197" ry="1.52057632"></ellipse>
                        <ellipse id="Oval" cx="1.5393235" cy="11.751886" rx="1.4678197" ry="1.52057632"></ellipse>
                    </g>
                    <path d="M60.0434184,20.2185374 L60.1806078,19.9301635 C56.5739841,9.01213097 45.7799189,0 33.0294722,0 C20.2757172,0 9.48143142,9.01213097 5.87127881,19.9301635 L6.01023263,20.2185374 L10.3535321,24.6137843 L10.3535321,13.4794713 L25.4092889,4.98248508 L32.9719057,12.6355536 L32.9719057,12.7480462 L33.0274873,12.6917999 L33.0830688,12.7480462 L33.0830688,12.6355536 L40.6456855,4.98248508 L55.7014423,13.4794713 L55.7014423,24.6137843 L60.0434184,20.2185374 Z" id="Path" fill="#663F24"></path>
                </g>
                <g id="advertising" transform="translate(557.771487, 39.474172)">
                    <rect id="Rectangle" fill="#32B220" x="0" y="0" width="83.665723" height="44.7523351"></rect>
                    <path d="M0,17.7677801 C0,19.2238068 1.30466237,20.4032829 2.91261298,20.4032829 C4.5205636,20.4032829 5.82522596,19.2238068 5.82522596,17.7701438 L5.82522596,14.2482611 C5.82522596,13.030966 6.92856769,12.0382206 8.27506292,12.0453116 L8.30643756,12.0453116 C8.3665723,12.0453116 8.42670704,12.0429479 8.48422722,12.0405842 C9.81242058,11.9673102 10.9314496,12.919873 10.9314496,14.122986 L10.9314496,21.3132996 C10.9314496,22.7385985 12.113228,24.0173491 13.6898039,24.0929868 C15.370962,24.1733519 16.7592901,22.9655117 16.7592901,21.4622114 L16.7592901,17.4959569 C16.7592901,16.2715709 17.8626319,15.2811891 19.2169708,15.2882801 L19.3869168,15.2882801 L19.420906,15.2882801 C20.8484523,15.2811891 22.0145434,16.3282992 22.0145434,17.6165045 L22.0145434,23.3129725 C22.0145434,24.7382714 23.1963217,26.0170222 24.7702831,26.0926599 C26.4514413,26.173025 27.8397693,24.9651847 27.8397693,23.4618843 L27.8397693,12.8985999 C27.8397693,11.6245766 29.0215477,10.6767411 30.4307923,10.6909231 C30.4412503,10.6909231 30.4543232,10.6909231 30.4647814,10.6909231 C30.4752396,10.6909231 30.4883124,10.6909231 30.4987705,10.6909231 C31.9054005,10.6767411 33.0897934,11.6245766 33.0897934,12.8985999 L33.0897934,17.6543235 C33.0897934,19.0796223 34.2715718,20.358373 35.8455332,20.4340107 C37.5266912,20.5143759 38.9150194,19.3041719 38.9150194,17.8032353 L38.9150194,8.72906902 C38.9150194,7.22813243 40.3059621,6.02029212 41.9845056,6.09829355 C43.5610817,6.1739313 44.74286,7.45031832 44.74286,8.87798084 L44.74286,24.2182619 C44.74286,25.6719248 46.0475223,26.851401 47.655473,26.851401 C49.2634235,26.851401 50.568086,25.6719248 50.568086,24.2182619 L50.568086,14.2458974 C50.568086,13.0286023 51.6714275,12.0358569 53.0179228,12.0429479 L53.0492975,12.0429479 C54.8193505,12.0429479 55.6743095,12.9884197 55.6743095,14.1206224 L55.6743095,20.0203668 C55.6743095,21.4456657 56.8560879,22.7244163 58.4300493,22.800054 C60.1112075,22.8804192 61.4995355,21.6725789 61.4995355,20.1692786 L61.4995355,17.4959569 C61.4995355,16.2715709 62.6028772,15.2811891 63.9572161,15.2882801 C65.7874038,15.2977348 66.7521743,16.4063006 66.7521743,17.6165045 L66.7521743,18.1530598 C66.7521743,19.5807224 67.9339526,20.8571094 69.5105285,20.9327472 C71.1916867,21.0131122 72.5800147,19.805272 72.5800147,18.3019717 L72.5800147,12.8985999 C72.5800147,11.6245766 73.761793,10.6767411 75.1710376,10.6909231 C75.1841103,10.6909231 75.1945685,10.6909231 75.2050268,10.6909231 C76.8025192,10.6909231 77.8300388,11.7262148 77.8300388,12.8985999 L77.8300388,15.0755489 C77.8300388,16.5008477 79.0118172,17.7795985 80.5857786,17.8552362 C82.2747804,17.9332376 83.665723,16.7253974 83.665723,15.2244608 L83.665723,0.00236367967 L0,0.00236367967 L0,17.7677801 Z" id="Path" fill="#249311"></path>
                </g>
                <g id="cricket" transform="translate(566.578405, 39.474172)">
                    <g id="Group" fill="#D4F582">
                        <path d="M6.21609204,19.0001245 C5.98945073,19.0001245 5.76069477,18.9290697 5.56950503,18.7821751 C5.34286371,18.6069303 0,14.4236635 0,8.03913074 C0,2.70558826 2.27885228,0.452885187 2.37600204,0.359461169 C2.78077199,-0.0297856343 3.43643958,-0.0297856343 3.84120952,0.359461169 C4.24597946,0.748707973 4.24597946,1.37923038 3.84120952,1.76847719 C3.83212894,1.77816648 2.0723624,3.60573645 2.0723624,8.03913074 C2.0723624,13.4757865 6.81615664,17.1891819 6.86479372,17.2251879 C7.31098603,17.5696964 7.38387944,18.196391 7.02675145,18.6264284 C6.82125669,18.8716516 6.52072683,19.0001245 6.21609204,19.0001245 Z" id="Path"></path>
                        <path d="M6.2182067,19.0001245 C5.82052708,19.0001245 5.44212813,18.7802611 5.27009469,18.408479 C0.919875143,8.99478308 5.22257714,3.65334562 5.40767168,3.43061128 C5.76691435,3.0034446 6.41648676,2.93143274 6.86479372,3.2748647 C7.3099909,3.61841627 7.38288432,4.24212028 7.02973685,4.67227748 C6.86678398,4.87276231 3.36056077,9.36847915 7.16432845,17.598884 C7.39606982,18.10201 7.16134306,18.6906649 6.63815241,18.9144758 C6.50144614,18.972851 6.35876909,19.0001245 6.2182067,19.0001245 Z" id="Path"></path>
                    </g>
                    <path d="M57.0676506,23.2578308 L61.1353253,26.5369307 C61.9331672,27.1800963 61.7745047,28.3393974 60.8403808,28.8056195 C50.4976112,33.9673388 27.4856884,35.1493498 10.2747379,31.2665535 L10.2747379,20.1385508 L57.0676506,23.2578308 Z" id="Path" fill="#AFD755"></path>
                    <path d="M61.5745725,26.2635711 C61.610781,26.1678993 61.6122189,26.164185 61.6484275,26.0685132 L57.6571186,23.0294145 L11.7425576,20.1385508 L11.7425576,30.4520818 C13.297304,30.7833313 14.9006771,31.0741735 16.5377752,31.3266345 C18.5386582,29.3026698 20.0451701,27.2752158 21.1179634,25.6130029 C21.5659303,24.9187634 22.4553277,24.5450807 23.3661628,24.6695666 C31.8483804,25.8293337 41.4956773,26.4149576 52.180082,26.4149576 C55.6678693,26.414845 58.8542237,26.3495631 61.5745725,26.2635711 Z" id="Path" fill="#8CC846"></path>
                    <path d="M8.80691821,17.2049661 L13.3369401,21.2427954 C33.2652394,25.4821617 57.4182371,24.6973975 66.8108938,24.2483435 C67.5519232,24.2128891 67.7889577,23.3918947 67.1482526,23.077014 C57.7041813,18.4355711 36.3621122,10.3215772 8.80691821,17.2049661 Z" id="Path" fill="#D4F582"></path>
                    <path d="M14.678197,23.6924336 C14.678197,28.5992488 11.3756357,33.5642513 8.07307444,33.5642513 C4.77051315,33.5642513 1.4678197,28.5993673 1.4678197,23.6924336 C1.4678197,18.7854998 4.42505916,16.7821256 8.07294228,16.7821256 C11.7208254,16.7821256 14.678197,18.7856184 14.678197,23.6924336 Z" id="Path" fill="#AFD755"></path>
                    <path d="M63.5238476,36.118744 L57.584965,36.118744 C57.1417856,36.118744 56.7421352,35.8655507 56.5899117,35.4884126 L46.7931291,11.1880838 L45.5024108,13.5860409 L54.5978959,36.1467613 C55.0544392,37.2788673 56.2545362,38.0394848 57.584965,38.0394848 L63.5238476,38.0394848 C64.1098319,38.0394848 64.5840669,37.6098863 64.5840669,37.0790567 C64.5840669,36.5482271 64.1098319,36.118744 63.5238476,36.118744 Z" id="Path" fill="#D4F582"></path>
                    <path d="M44.5725258,10.7217257 L23.825105,31.3736681 C23.2845306,31.9117488 23.4014115,32.7445228 24.0844016,33.1392921 C26.0239936,34.2600723 29.8692188,35.8854979 32.7242465,33.2983988 C34.0315229,32.1138604 42.6052933,20.6600183 48.0130113,13.3771945 C48.4640822,12.7695911 48.5621411,12.0125658 48.2783627,11.3317503 C47.707515,9.96250972 45.6718385,9.62746316 44.5725258,10.7217257 Z" id="Path" fill="#BEE86E"></path>
                    <path d="M8.80691821,25.7325927 C7.18565584,25.7325927 5.87127881,24.6889983 5.87127881,23.4017419 L5.87127881,22.4694015 C5.87127881,21.1821451 7.18565584,20.1385508 8.80691821,20.1385508 C10.4281806,20.1385508 11.7425576,21.1821451 11.7425576,22.4694015 L11.7425576,23.4017419 C11.7425576,24.6889983 10.4281806,25.7325927 8.80691821,25.7325927 Z" id="Path" fill="#4B3F4E"></path>
                    <path d="M8.80691821,20.1385508 L8.80691821,22.6451576 C8.80691821,23.114445 9.1354596,23.4949759 9.54082806,23.4949759 C9.94619652,23.4949759 10.2747379,23.114445 10.2747379,22.6451576 L10.2747379,22.2202485 C10.2747379,21.1924071 9.64435076,20.3354474 8.80691821,20.1385508 Z" id="Path" fill="#5D5360"></path>
                    <ellipse id="Oval" fill="#FFFFFF" cx="8.07300836" cy="22.3761675" rx="1.4678197" ry="1.11880838"></ellipse>
                    <path d="M3.66784199,21.3169666 C3.66784199,19.9737024 3.92746046,18.8441738 4.38463195,17.900934 C2.6252744,18.9033891 1.4678197,20.8087896 1.4678197,23.8350759 C1.4678197,28.6709903 4.76785313,33.5642513 8.06788655,33.5642513 C9.35977238,33.5642513 10.648621,32.8077673 11.7425576,31.6048912 C7.67700624,31.4611161 3.66784199,26.3646311 3.66784199,21.3169666 Z" id="Path" fill="#8CC846"></path>
                    <g id="Group" transform="translate(2.935639, 29.089018)" fill="#BEE86E">
                        <path d="M6.97982052,8.88416289 L1.19429267,8.88416289 C0.60432234,8.88416289 0.12686156,8.44535448 0.12686156,7.90314461 C0.12686156,7.36093473 0.60432234,6.92212631 1.19429267,6.92212631 L6.97969237,6.92212631 L10.9420018,0.549276028 C11.2339115,0.0789054329 11.8853904,-0.0869137454 12.3982187,0.184308959 C12.9100218,0.452587431 13.0882687,1.05226872 12.7953338,1.52263932 L8.83302443,7.8954896 C8.45474633,8.50482797 7.74496231,8.88416289 6.97982052,8.88416289 Z" id="Path"></path>
                        <path d="M14.0035941,8.88416289 L11.8687319,8.88416289 C11.2787615,8.88416289 10.8013008,8.44535448 10.8013008,7.90314461 C10.8013008,7.36093473 11.2787615,6.92212631 11.8687319,6.92212631 L14.0035941,6.92212631 L14.0035941,1.03601656 C14.0035941,0.493806686 14.4810549,0.0549982644 15.0710252,0.0549982644 C15.6609955,0.0549982644 16.1384563,0.493806686 16.1384563,1.03601656 L16.1384563,6.92212631 C16.1384563,8.00383736 15.1804592,8.88416289 14.0035941,8.88416289 Z" id="Path"></path>
                    </g>
                    <path d="M28.3479304,14.5493446 C26.3553286,17.1239033 18.1057505,19.7977276 11.7425576,21.2964759 L12.1231111,21.6500221 C13.2999533,21.9108887 14.493715,22.1499968 15.6956679,22.3761675 C27.5356622,19.2477671 30.2208874,15.8875505 30.8242137,14.5594593 C30.00832,14.5436991 29.1826236,14.5405236 28.3479304,14.5493446 Z" id="Path" fill="#AFD755"></path>
                </g>
                <g id="grass(1)" transform="translate(0.000000, 254.285380)">
                    <path d="M283.289202,3.35642513 C283.289202,5.23567346 279.638725,6.71285026 274.989714,6.71285026 L8.29948836,6.71285026 C3.65047795,6.71285026 0,5.23567346 0,3.35642513 C0,1.47630256 3.65047795,0 8.29948836,0 L274.989714,0 C279.638725,0 283.289202,1.47630256 283.289202,3.35642513 Z" id="Path" fill="#B35F49"></path>
                    <path d="M283.289202,3.35642513 C283.289202,5.23567346 279.61981,6.71285026 274.946711,6.71285026 L140.910691,6.71285026 L140.910691,0 L274.946711,0 C279.61981,0 283.289202,1.47630256 283.289202,3.35642513 Z" id="Path" fill="#99503D"></path>
                </g>
                <g id="grass(1)" transform="translate(264.207546, 254.285380)">
                    <path d="M283.289202,3.35642513 C283.289202,5.23567346 279.638725,6.71285026 274.989714,6.71285026 L8.29948836,6.71285026 C3.65047795,6.71285026 0,5.23567346 0,3.35642513 C0,1.47630256 3.65047795,0 8.29948836,0 L274.989714,0 C279.638725,0 283.289202,1.47630256 283.289202,3.35642513 Z" id="Path" fill="#B35F49"></path>
                    <path d="M283.289202,3.35642513 C283.289202,5.23567346 279.61981,6.71285026 274.946711,6.71285026 L140.910691,6.71285026 L140.910691,0 L274.946711,0 C279.61981,0 283.289202,1.47630256 283.289202,3.35642513 Z" id="Path" fill="#99503D"></path>
                </g>
                <g id="grass(1)" transform="translate(478.509223, 254.285380)">
                    <path d="M283.289202,3.35642513 C283.289202,5.23567346 279.638725,6.71285026 274.989714,6.71285026 L8.29948836,6.71285026 C3.65047795,6.71285026 0,5.23567346 0,3.35642513 C0,1.47630256 3.65047795,0 8.29948836,0 L274.989714,0 C279.638725,0 283.289202,1.47630256 283.289202,3.35642513 Z" id="Path" fill="#B35F49"></path>
                    <path d="M283.289202,3.35642513 C283.289202,5.23567346 279.61981,6.71285026 274.946711,6.71285026 L140.910691,6.71285026 L140.910691,0 L274.946711,0 C279.61981,0 283.289202,1.47630256 283.289202,3.35642513 Z" id="Path" fill="#99503D"></path>
                </g>
            </g>
            <g id="chat" transform="translate(627.000000, 75.000000)" fill="#FFFFFF">
                <path d="M54,0 C24.1771034,0 0,18.8372545 0,42.0727273 C0,50.6361455 3.29213793,58.5959818 8.93048276,65.2418545 C8.18937931,72.9201273 6.05917241,83.7344364 0,89 C0,89 18.5145517,86.7426364 31.0537241,80.1614909 C31.0667586,80.1663455 31.0816552,80.1712 31.0946897,80.1760545 C36.2414483,77.2617091 41.3956552,74.2599818 42.4626207,73.4994364 C43.0212414,72.8181818 44.0993793,72.6126727 44.9391724,73.0512 C45.4903448,73.3392364 45.8385517,73.8651455 45.8497241,74.4234182 C45.8683448,75.4299273 45.8404138,75.6920727 35.450069,81.5774 C41.2373793,83.2279455 47.4790345,84.1454545 54,84.1454545 C83.8228966,84.1454545 108,65.3082 108,42.0727273 C108,18.8372545 83.8228966,0 54,0 Z" id="Path"></path>
            </g>
            <g id="Bonjour,-chez-Nutris" transform="translate(641.000000, 89.000000)" fill="#040404" font-family="Arial-BoldMT, Arial" font-size="11" font-weight="bold">
                <text id="Bonjour,-chez">
                    <tspan x="6.441162" y="10">Bonjour, chez</tspan>
                </text>
                <text id="Nutrisect-nous">
                    <tspan x="3.994629" y="22.359863">Nutrisect nous</tspan>
                </text>
                <text id="prenons-soin-de">
                    <tspan x="0.022705" y="34.719727">prenons soin de</tspan>
                </text>
                <text id="notre-planète">
                    <tspan x="7.966553" y="47.07959">notre planète</tspan>
                </text>
            </g>
        </g>
    </g>
</svg>