<?xml version="1.0" encoding="UTF-8"?>
<svg width="1022px" height="320px" viewBox="0 0 1022 320" version="1.1" xmlns="http://www.w3.org/2000/svg" xmlns:xlink="http://www.w3.org/1999/xlink">
    <!-- Generator: Sketch 52.1 (67048) - http://www.bohemiancoding.com/sketch -->
    <title>Untitled</title>
    <desc>Created with Sketch.</desc>
    <g id="Page-1" stroke="none" stroke-width="1" fill="none" fill-rule="evenodd">
        <g id="grasshopper" fill="#431B01" fill-rule="nonzero">
            <path d="M442.772,69.643 C450.93,48.914 467.2,25.367 487.304,15.156 C490.997,13.28 492.47,8.765 490.594,5.072 C488.718,1.378 484.203,-0.093 480.511,1.782 C465.033,9.644 450.155,24.742 438.615,44.294 C434.464,51.327 430.998,58.547 428.317,65.57 C419.089,63.565 409.311,62.511 399.096,62.511 C388.881,62.511 379.103,63.565 369.875,65.57 C367.194,58.547 363.728,51.327 359.577,44.294 C348.036,24.741 333.157,9.643 317.681,1.782 C313.987,-0.093 309.473,1.38 307.598,5.072 C305.722,8.765 307.195,13.28 310.888,15.156 C330.993,25.368 347.263,48.916 355.42,69.643 C331.647,77.944 312.536,93.084 300.467,112.913 L91.19,112.913 C87.048,112.913 83.69,116.271 83.69,120.413 C83.69,124.555 87.048,127.913 91.19,127.913 L293.057,127.913 C288.597,139.34 286.192,151.893 286.192,165.272 C286.192,166.856 286.233,168.43 286.298,169.998 L86.665,169.998 C83.959,169.998 81.203,169.84 78.458,169.543 L43.738,155.287 C42.568,154.807 41.367,154.454 40.152,154.216 C33.201,148.902 27.252,142.514 22.48,135.178 C21.102,133.06 21.887,131.111 22.289,130.371 C22.69,129.631 23.896,127.911 26.422,127.911 L46.382,127.911 C50.524,127.911 53.882,124.553 53.882,120.411 C53.882,116.269 50.524,112.911 46.382,112.911 L26.422,112.911 C19.189,112.911 12.553,116.861 9.104,123.219 C5.655,129.577 5.962,137.293 9.906,143.357 C13.714,149.212 18.142,154.568 23.135,159.372 C19.564,162.906 17.507,167.743 17.507,172.873 C17.507,182.593 20.437,191.856 25.693,199.638 L0.942,287.476 C-0.856,293.857 -0.062,300.556 3.178,306.339 C6.418,312.123 11.717,316.298 18.097,318.095 C20.299,318.716 22.567,319.031 24.839,319.031 C35.898,319.031 45.717,311.591 48.718,300.939 L68.176,231.893 L109.28,258.766 C117.645,264.235 127.099,266.916 136.498,266.916 C146.677,266.915 156.786,263.762 165.363,257.601 C171.146,258.972 177.01,260.062 182.899,260.878 L176.128,288.249 C172.842,301.534 180.977,315.016 194.263,318.303 C196.223,318.787 198.232,319.032 200.235,319.032 C211.665,319.032 221.567,311.275 224.315,300.169 L233.354,263.626 L258.344,266.226 C259.201,266.315 260.074,266.361 260.935,266.361 C265.719,266.361 270.201,265.012 274.004,262.656 L342.025,262.656 C342.798,263.111 343.578,263.557 344.363,263.994 L353.311,300.171 C356.059,311.277 365.961,319.034 377.391,319.034 C379.396,319.034 381.406,318.788 383.364,318.304 C396.649,315.017 404.784,301.535 401.498,288.251 L399.007,278.179 C399.038,278.179 399.069,278.18 399.1,278.18 C418.063,278.18 436.821,273.386 453.345,264.317 C456.976,262.324 458.304,257.765 456.312,254.134 C454.319,250.503 449.76,249.174 446.128,251.168 C431.808,259.027 415.545,263.181 399.1,263.181 C345.116,263.181 301.196,219.262 301.196,165.277 C301.196,150.324 304.516,136.604 310.935,124.581 C311.186,124.205 311.404,123.805 311.585,123.386 C316.122,115.231 322.106,107.878 329.482,101.482 C338.151,93.965 348.461,88.106 359.87,84.054 C360.682,87.837 361.12,91.344 361.12,94.414 C361.12,98.556 364.477,101.914 368.62,101.914 C372.763,101.914 376.12,98.556 376.12,94.414 C376.12,90.039 375.498,85.172 374.326,80.01 C382.256,78.365 390.561,77.513 399.101,77.513 C407.641,77.513 415.946,78.364 423.876,80.01 C422.703,85.172 422.082,90.039 422.082,94.414 C422.082,98.556 425.439,101.914 429.582,101.914 C433.725,101.914 437.082,98.556 437.082,94.414 C437.082,91.343 437.521,87.836 438.333,84.054 C449.742,88.106 460.052,93.965 468.721,101.482 C487.226,117.527 497.007,139.586 497.007,165.277 C497.007,188.068 489.005,210.259 474.476,227.764 C471.83,230.952 472.27,235.679 475.457,238.325 C478.644,240.97 483.371,240.532 486.019,237.344 C502.778,217.153 512.007,191.559 512.007,165.277 C512,120.051 484.606,84.251 442.772,69.643 Z M383.276,277.064 L386.933,291.849 C388.233,297.105 385.014,302.439 379.758,303.739 C378.977,303.932 378.179,304.031 377.387,304.031 C372.869,304.031 368.955,300.961 367.867,296.566 L361.747,271.821 C368.646,274.246 375.845,276.017 383.276,277.064 Z M34.28,296.871 C33.092,301.087 29.21,304.031 24.838,304.031 C23.943,304.031 23.044,303.905 22.166,303.658 C19.641,302.947 17.545,301.295 16.263,299.007 C14.981,296.719 14.667,294.069 15.378,291.545 L37.802,211.974 C38.26,212.297 38.71,212.63 39.182,212.939 L55.016,223.291 L34.28,296.871 Z M160.379,242.303 C159.84,242.816 159.284,243.302 158.721,243.775 C158.693,243.8 158.663,243.822 158.634,243.847 C146.962,253.579 130.37,254.634 117.487,246.211 L67.853,213.762 C67.829,213.746 67.806,213.731 67.782,213.715 L47.389,200.383 C44.505,198.498 41.984,196.21 39.873,193.621 C39.783,193.502 39.694,193.382 39.597,193.268 C35.062,187.548 32.507,180.408 32.507,172.874 C32.507,171.012 33.62,169.988 34.284,169.543 C34.734,169.241 35.51,168.849 36.5,168.849 C36.969,168.849 37.486,168.937 38.04,169.164 L155.718,217.48 C160.526,219.454 163.834,223.516 164.793,228.625 C165.753,233.734 164.144,238.719 160.379,242.303 Z M270.678,242.555 C270.402,245.203 269.1,247.501 267.197,249.087 C267.023,249.213 266.854,249.345 266.692,249.486 C265.071,250.666 263.08,251.359 260.933,251.359 C260.588,251.359 260.24,251.341 259.896,251.305 L228.415,248.03 C224.697,247.648 221.257,250.057 220.358,253.689 L209.752,296.565 C208.665,300.96 204.751,304.03 200.234,304.03 C199.442,304.03 198.644,303.932 197.862,303.738 C192.607,302.438 189.388,297.104 190.689,291.848 L204.914,234.346 C205.999,229.956 209.992,226.901 214.436,226.901 C214.772,226.901 215.111,226.919 215.451,226.954 C215.628,226.973 215.804,226.985 215.979,226.991 L261.928,231.771 L261.929,231.771 C264.537,232.042 266.885,233.313 268.537,235.35 C270.188,237.388 270.949,239.946 270.678,242.555 Z M321.977,247.654 L284.942,247.654 C285.233,246.501 285.47,245.324 285.597,244.108 C286.284,237.514 284.361,231.047 280.183,225.9 C276.005,220.753 270.073,217.54 263.478,216.854 L263.479,216.854 L217.013,212.02 C216.806,211.999 216.6,211.986 216.395,211.981 C204.381,211.029 193.257,218.999 190.351,230.746 L186.52,246.233 C183.317,245.819 180.121,245.311 176.941,244.717 C179.79,238.967 180.761,232.382 179.537,225.859 C177.65,215.809 170.877,207.49 161.417,203.606 L116.101,185 L287.921,185 C292.257,209.509 304.529,231.311 321.977,247.654 Z" id="Shape"></path>
        </g>
        <text id="N" font-family="Helvetica" font-size="150" font-weight="normal" fill="#431B0F">
            <tspan x="349" y="228">N</tspan>
        </text>
        <text id="utriSect" font-family="Helvetica" font-size="150" font-weight="normal" fill="#431B0F">
            <tspan x="513" y="228">utriSect</tspan>
        </text>
    </g>
</svg>